<svg xmlns="http://www.w3.org/2000/svg" width="200" height="200" viewBox="0 0 200 200">
  <!-- Abstract masi: scattered, organic motifs (fern stroke, free triangles,
       loose diamond, dashes, dot clusters) with open negative space — no grid. -->
  <g fill="none" stroke="#ffffff" stroke-width="2" stroke-linecap="round" stroke-linejoin="round">
    <path d="M34 156 Q40 120 44 86"/>
    <path d="M40 138 Q52 132 60 136" stroke-width="1.3"/>
    <path d="M38 122 Q50 116 58 119" stroke-width="1.3"/>
    <path d="M37 106 Q48 100 55 102" stroke-width="1.3"/>
    <path d="M40 92 Q49 87 55 88" stroke-width="1.3"/>
    <path d="M150 36 L178 56 L160 86 L132 66 Z"/>
    <path d="M40 60 L24 52 L30 70 Z" stroke-width="1.6"/>
    <path d="M170 150 L186 158 L174 168 Z" stroke-width="1.6"/>
    <path d="M150 110 L160 116" stroke-width="2"/>
    <path d="M138 102 L148 108" stroke-width="2"/>
    <path d="M162 118 L172 124" stroke-width="2"/>
  </g>
  <g fill="#ffffff">
    <path d="M110 158 L124 162 L116 176 Z"/>
    <circle cx="96" cy="96" r="2.6"/>
    <circle cx="106" cy="104" r="2.6"/>
    <circle cx="88" cy="104" r="2.6"/>
    <circle cx="24" cy="40" r="2"/>
    <circle cx="176" cy="170" r="2"/>
    <circle cx="70" cy="162" r="2"/>
  </g>
</svg>
